<svg width="118" height="86" viewBox="0 0 118 86" fill="none" xmlns="http://www.w3.org/2000/svg">
<circle cx="56" cy="41" r="41" fill="#641AC6"/>
<g filter="url(#filter0_d_550_286)">
<path d="M102.976 29.9867C103.312 33.2772 100.041 34.9235 100.041 34.9235C92.1449 38.9903 82.5229 42.291 71.4376 44.8988L57.1826 57.8474C57.1185 57.905 57.0446 57.9501 56.9643 57.9785L47.7423 60.961C47.4949 61.0554 47.2166 60.9744 47.0536 60.7615C46.8897 60.5487 46.8783 60.2515 47.0244 60.0261L53.2571 48.5917C38.1844 51.2939 25.7007 52.6494 23.7755 52.8271C23.6068 52.8472 23.4372 52.8071 23.2936 52.7145L21.0221 51.2653C20.7795 51.1076 20.6424 50.8246 20.6651 50.5308C20.6879 50.2361 20.8671 49.979 21.1308 49.863L25.6737 47.8529L15.1252 30.9126C14.9922 30.6964 14.9638 30.4293 15.0465 30.1889C15.1301 29.9477 15.3167 29.7598 15.5528 29.6789L23.1759 27.0703H23.1751C23.4509 26.9818 23.751 27.0494 23.966 27.2481L37.6944 40.1591C37.6944 40.1591 75.7281 26.8273 82.8783 25.3874C90.0286 23.9475 93.5265 26.0978 93.5265 26.0978C93.5265 26.0978 102.612 26.6771 102.976 29.9869L102.976 29.9867ZM49.1339 20.0022L43.1551 20.7318V20.7309C43.0132 20.7484 42.8931 20.8461 42.8436 20.9838C42.7933 21.1224 42.8225 21.2768 42.919 21.3854L53.0318 32.829C56.7571 31.5952 60.7725 30.2764 64.6616 29.0241L49.3699 20.0489C49.2969 20.0097 49.2149 19.9938 49.1338 20.0022L49.1339 20.0022Z" fill="#E8E0FF"/>
</g>
<defs>
<filter id="filter0_d_550_286" x="0" y="15" width="118" height="71" filterUnits="userSpaceOnUse" color-interpolation-filters="sRGB">
<feFlood flood-opacity="0" result="BackgroundImageFix"/>
<feColorMatrix in="SourceAlpha" type="matrix" values="0 0 0 0 0 0 0 0 0 0 0 0 0 0 0 0 0 0 127 0" result="hardAlpha"/>
<feOffset dy="10"/>
<feGaussianBlur stdDeviation="7.5"/>
<feComposite in2="hardAlpha" operator="out"/>
<feColorMatrix type="matrix" values="0 0 0 0 0 0 0 0 0 0 0 0 0 0 0 0 0 0 0.25 0"/>
<feBlend mode="normal" in2="BackgroundImageFix" result="effect1_dropShadow_550_286"/>
<feBlend mode="normal" in="SourceGraphic" in2="effect1_dropShadow_550_286" result="shape"/>
</filter>
</defs>
</svg>
