<svg width="202" height="52" viewBox="0 0 202 52" fill="none" xmlns="http://www.w3.org/2000/svg">
<path d="M111.991 45.3765C111.991 41.9184 114.133 39.7571 116.825 39.7571C118.455 39.7571 119.615 40.5037 120.204 41.4667V39.9145H123.564V50.8783H120.204V49.3251C119.595 50.2878 118.435 51.0347 116.805 51.0347C114.133 51.0347 111.991 48.8344 111.991 45.3765ZM115.41 45.3765C115.41 47.1252 116.55 48.1069 117.807 48.1069C119.085 48.1069 120.204 47.1441 120.204 45.3954C120.204 43.6467 119.085 42.6839 117.807 42.6839C116.549 42.6844 115.41 43.6276 115.41 45.3765H115.41ZM80.2984 47.2822H83.619C83.6976 48.0477 84.3845 48.5596 85.3087 48.5596C86.1733 48.5596 86.6252 48.1663 86.6252 47.6754C86.6252 45.907 80.6521 47.1842 80.6521 43.1562C80.6521 41.2896 82.2436 39.7571 85.1123 39.7571C87.9416 39.7571 89.5135 41.3289 89.7309 43.4903H86.6249C86.5267 42.7436 85.9569 42.2524 85.0138 42.2524C84.2278 42.2524 83.7956 42.5668 83.7956 43.0973C83.7956 44.8463 89.7294 43.6076 89.7883 47.695C89.7883 49.6009 88.0986 51.0353 85.3483 51.0353C82.4202 51.0347 80.4551 49.4042 80.2981 47.2822H80.2984ZM131.798 50.8778V36.338H135.157V50.8778H131.798ZM126.001 50.8778V39.914H129.361V50.8778H126.001ZM106.962 50.8778V44.9243C106.962 43.49 106.137 42.7043 104.859 42.7043C103.582 42.7043 102.757 43.4903 102.757 44.9243V50.8778H99.416V44.9243C99.416 43.49 98.5908 42.7043 97.3137 42.7043C96.0365 42.7043 95.2113 43.4903 95.2113 44.9243V50.8778H91.8514V39.914H95.2113V41.2894C95.8597 40.4052 96.9796 39.7961 98.414 39.7961C100.064 39.7961 101.4 40.5231 102.147 41.8395C102.543 41.2172 103.088 40.7041 103.734 40.3471C104.379 39.9901 105.104 39.8006 105.841 39.7961C108.553 39.7961 110.301 41.5252 110.301 44.4724V50.8773L106.962 50.8778ZM75.0924 50.8778V37.0846H78.4522V50.8778H75.0924ZM126 36.7986C126 36.4661 126.098 36.1411 126.283 35.8647C126.468 35.5883 126.73 35.3728 127.037 35.2456C127.345 35.1185 127.683 35.0852 128.009 35.1501C128.335 35.215 128.634 35.3751 128.869 35.6102C129.105 35.8453 129.265 36.1449 129.329 36.471C129.394 36.7971 129.361 37.1351 129.234 37.4422C129.106 37.7494 128.891 38.0119 128.615 38.1966C128.338 38.3813 128.013 38.4799 127.681 38.4799C127.46 38.48 127.241 38.4366 127.037 38.3522C126.833 38.2677 126.648 38.1439 126.491 37.9877C126.335 37.8316 126.211 37.6462 126.127 37.4422C126.042 37.2381 125.999 37.0194 125.999 36.7986H126ZM177.086 23.6865C177.086 20.2284 179.228 18.067 181.919 18.067C183.55 18.067 184.709 18.8137 185.299 19.7767V18.2245H188.659V29.1883H185.299V27.6353C184.69 28.5981 183.531 29.345 181.9 29.345C179.228 29.345 177.086 27.1446 177.086 23.6865ZM180.505 23.6865C180.505 25.4354 181.645 26.4168 182.903 26.4168C184.178 26.4168 185.3 25.4541 185.3 23.7056C185.3 21.9572 184.18 20.9941 182.903 20.9941C181.644 20.9946 180.505 21.938 180.505 23.6865H180.505ZM102.246 23.6865C102.246 20.2284 104.388 18.067 107.079 18.067C107.736 18.0484 108.388 18.1909 108.977 18.482C109.566 18.7731 110.075 19.2041 110.459 19.7371V14.6485H113.819V29.1883H110.458V27.6164C109.849 28.6187 108.69 29.3455 107.079 29.3455C104.387 29.345 102.245 27.1446 102.245 23.6865H102.246ZM105.665 23.6865C105.665 25.4354 106.805 26.4168 108.062 26.4168C109.338 26.4168 110.459 25.4541 110.459 23.7056C110.459 21.9572 109.339 20.9941 108.062 20.9941C106.804 20.9946 105.664 21.938 105.664 23.6865H105.665ZM92.9321 27.6554V29.1883H89.5722V14.6485H92.9321V19.7759C93.5412 18.7935 94.7397 18.0663 96.3116 18.0663C99.0228 18.0663 101.145 20.2276 101.145 23.6857C101.145 27.1438 99.0034 29.345 96.3116 29.345C94.7004 29.345 93.5409 28.6185 92.9321 27.6554ZM92.9124 23.7056C92.9124 25.4543 94.052 26.4168 95.3093 26.4168C96.5851 26.4168 97.7263 25.4347 97.7263 23.6865C97.7263 21.9383 96.5864 20.9946 95.3093 20.9946C94.052 20.9946 92.9124 21.9574 92.9124 23.7056ZM116.155 24.6296V18.2245H119.496V24.1777C119.496 25.671 120.341 26.4962 121.598 26.4962C122.895 26.4962 123.72 25.6707 123.72 24.1777V18.2245H127.08V29.1883H123.721V27.6947C123.338 28.2105 122.836 28.6263 122.258 28.9068C121.68 29.1873 121.043 29.3242 120.401 29.3059C117.865 29.3059 116.155 27.5575 116.155 24.6296ZM198.659 29.188V23.2346C198.659 21.7413 197.834 20.9161 196.556 20.9161C195.279 20.9161 194.454 21.7413 194.454 23.2346V29.1883H191.095V18.2245H194.455V19.679C194.844 19.1719 195.348 18.7649 195.926 18.4915C196.503 18.2182 197.137 18.0864 197.776 18.1071C200.31 18.1071 202 19.8362 202 22.7837V29.1885L198.659 29.188ZM172.055 29.188V23.2346C172.055 21.8005 171.23 21.0145 169.952 21.0145C168.675 21.0145 167.85 21.8005 167.85 23.2346V29.1883H164.511V23.2346C164.511 21.8005 163.686 21.0145 162.409 21.0145C161.131 21.0145 160.306 21.8005 160.306 23.2346V29.1883H156.947V18.2245H160.306V19.5999C160.955 18.7157 162.075 18.1063 163.509 18.1063C165.159 18.1063 166.495 18.8333 167.242 20.1498C167.638 19.5274 168.184 19.0143 168.829 18.6573C169.474 18.3003 170.199 18.1109 170.936 18.1063C173.648 18.1063 175.397 19.8354 175.397 22.7829V29.1878L172.055 29.188ZM151.267 29.188V23.2346C151.267 21.7413 150.442 20.9161 149.164 20.9161C147.887 20.9161 147.062 21.7413 147.062 23.2346V29.1883H143.704V14.6485H147.063V19.6979C147.731 18.7537 148.93 18.1063 150.443 18.1063C152.938 18.1063 154.608 19.8354 154.608 22.7829V29.1878L151.267 29.188ZM135.293 29.188V18.2245H138.653V20.0515C139.015 19.4631 139.52 18.9761 140.122 18.6359C140.723 18.2958 141.401 18.1136 142.092 18.1063V21.6627H141.168C139.577 21.6627 138.653 22.2128 138.653 24.0991V29.188H135.293ZM129.497 29.188V14.6485H132.857V29.1883L129.497 29.188ZM84.5021 29.188L83.6767 26.7516H78.5298L77.7046 29.188H74.1875L79.1782 15.3949H83.0686L88.0593 29.188H84.5021ZM79.414 24.158H82.8131L81.1035 19.1087L79.414 24.158Z" fill="white"/>
<path d="M41.9766 51.0347V13.2869H51.0352V48.7905V51.036L41.9766 51.0347Z" fill="white"/>
<path d="M41.9766 4.52934C41.9766 3.63352 42.2422 2.75782 42.7399 2.01297C43.2376 1.26813 43.945 0.687592 44.7726 0.344777C45.6002 0.00196252 46.5109 -0.0877335 47.3895 0.087032C48.2681 0.261797 49.0752 0.693175 49.7086 1.32661C50.3421 1.96005 50.7734 2.7671 50.9482 3.64571C51.123 4.52431 51.0333 5.43501 50.6905 6.26264C50.3476 7.09027 49.7671 7.79766 49.0223 8.29535C48.2774 8.79304 47.4017 9.05868 46.5059 9.05868C45.9111 9.05871 45.3221 8.94158 44.7726 8.71397C44.223 8.48636 43.7237 8.15273 43.3031 7.73214C42.8825 7.31154 42.5489 6.81222 42.3213 6.26268C42.0937 5.71314 41.9765 5.12415 41.9766 4.52934Z" fill="white"/>
<path d="M12.7051 51.0348L12.7515 50.8977L20.96 42.6893L38.1783 51.0348H12.7051Z" fill="white"/>
<path d="M18.9355 32.7039L25.4425 13.2622L32.0239 32.7039H18.9355Z" fill="white"/>
<path d="M0 0H17.6537L0 51.0348V0Z" fill="#B4B4B4"/>
</svg>
