<svg width="75" height="74" viewBox="0 0 75 74" fill="none" xmlns="http://www.w3.org/2000/svg">
<circle cx="35.6695" cy="31.3305" r="25.6695" fill="#C52800"/>
<g filter="url(#filter0_d_584_64)">
<path fill-rule="evenodd" clip-rule="evenodd" d="M25.0842 42.9362H31.0427C31.0427 44.5824 29.7096 45.9183 28.0627 45.9183C26.4158 45.9183 25.0842 44.5828 25.0842 42.9362ZM53.3307 39.9569C54.9769 39.9569 56.3128 41.29 56.3128 42.9362C56.3128 44.5824 54.9765 45.9183 53.3307 45.9183C51.6866 45.9183 50.3507 44.582 50.3507 42.9362C50.3507 42.3318 50.5349 41.7398 50.8784 41.2422L52.4389 43.2236C52.7288 43.6195 53.2264 43.7923 53.653 43.546C54.0797 43.2993 54.1596 42.7909 53.9783 42.3346L52.7887 40.0069C52.9686 39.9744 53.1493 39.9569 53.3307 39.9569ZM22.6202 20.0292C22.748 20.0409 22.9044 20.1241 23.0825 20.2487C24.684 21.3469 25.1821 24.454 23.7722 25.8627C23.568 26.068 23.4788 26.1926 23.4788 26.5446V29.8673C23.4788 30.4928 22.2824 30.4928 22.2824 29.8644L22.2796 25.6653V20.7075C22.2789 20.1859 22.4092 20.0113 22.6202 20.0292ZM19.2292 20.0292C19.377 20.0263 19.5277 20.157 19.5402 20.4112L19.6469 22.9249C19.6352 23.293 20.1853 23.293 20.1735 22.9249V20.4915C20.1735 20.177 20.346 20.0888 20.588 20.3848C20.9822 20.8617 21.1982 21.9366 21.1982 22.706C21.1982 23.7314 20.7865 24.6635 20.1261 25.1023C19.8826 25.2622 19.8326 25.3154 19.8326 25.6681V29.8644C19.8326 30.4924 18.627 30.4924 18.627 29.8644V25.6681C18.6153 25.3333 18.6174 25.2769 18.3307 25.0994C17.6592 24.6821 17.2583 23.7313 17.2583 22.706C17.2583 21.9395 17.4779 20.8616 17.8691 20.3847C18.1148 20.0884 18.2865 20.1773 18.2865 20.4915V22.9249C18.2711 23.2929 18.8249 23.2929 18.8138 22.9249L18.9205 20.429C18.9323 20.1619 19.0811 20.0292 19.2292 20.0292ZM33.4612 13.5994C32.4512 13.6233 31.4798 14.1434 31.2196 15.0542L28.3678 24.9422C27.9273 26.4794 28.4271 28.5373 30.758 28.5373H38.0485L39.6483 37.0078C39.9293 38.4993 42.7725 38.524 42.6572 37.0042L41.9371 27.4269C41.8218 25.8904 41.1995 25.3155 40.0867 25.1674L34.5063 24.3202L35.0714 19.5731L37.6901 21.5545C38.2377 21.969 38.4919 22.0343 39.1174 22.1436L42.3094 22.7094C42.6472 22.7701 42.7978 22.9108 43.0238 23.4634L47.7763 35.0998C48.8545 37.7392 48.013 39.5304 44.5754 39.5304H38.4426C35.7894 39.5304 34.3741 37.2794 35.2381 35.3309L36.4995 32.4944C37.0711 31.2085 36.3902 29.8579 35.0164 29.8579L26.9527 29.8575V17.4772C26.9527 15.676 25.9984 15.1462 24.4026 15.1462H20.982C17.6708 15.1462 15.0085 17.8081 15.0085 21.1197V30.9044C15.0085 31.9641 15.7997 32.8202 16.7793 32.8202H23.2202C20.3002 34.6535 18.4463 38.246 18.76 41.4027C18.8964 42.7736 19.6893 42.9371 20.2766 42.9371H22.1688C22.1688 46.1916 24.8074 48.8324 28.0616 48.8324C31.3158 48.8324 33.9587 46.191 33.9587 42.9371H47.4358C47.4358 46.1916 50.0737 48.8324 53.3289 48.8324C56.587 48.8324 59.2243 46.191 59.2243 42.9371C59.2221 41.9033 58.949 40.8875 58.431 39.9932L58.7919 40.0489C59.4549 40.1506 59.6273 39.3384 59.2985 38.6248C58.2111 36.2556 55.9019 34.7008 53.3393 34.5734C53.0901 34.5616 52.8627 34.4171 52.8627 34.1111L52.8638 33.6406C52.8638 33.0651 52.8673 32.6017 52.4139 31.9822L46.0298 23.0887C45.7067 22.5321 45.7899 22.2215 46.3501 22.2215H47.4282C48.1533 22.2215 48.6799 22.0701 48.5771 21.2261L48.2568 19.1083C48.1737 18.4482 47.8959 17.9969 46.9416 17.9969H45.2532C43.4561 17.9969 42.7277 19.244 42.2479 19.8952C42.1558 20.0173 42.0847 20.1208 42.0205 20.2154L39.4472 19.3982L35.5711 14.4968C35.0542 13.8631 34.2467 13.5818 33.4612 13.5994Z" fill="#FFE7E0"/>
<path fill-rule="evenodd" clip-rule="evenodd" d="M35.1946 5.00806C33.4892 4.89882 31.9048 5.90845 31.285 7.50177C30.6663 9.09871 31.1404 10.9251 32.487 11.9794C33.245 12.572 34.1529 12.9894 34.9476 12.9951C36.8787 13.0015 38.4485 11.4256 38.4642 9.49774L37.462 9.55701C37.4178 10.9197 36.3189 12.0007 34.9472 12.0007C34.7873 12.0007 34.6338 11.9861 34.4831 11.9565C34.643 11.734 34.7584 11.4441 34.8387 11.1093C35.3185 9.09575 36.758 9.06614 38.0967 8.96825C38.4844 8.93862 39.0067 8.93862 39.4673 8.93862C40.2613 8.93862 40.2881 7.93721 39.6072 7.80404L38.6951 7.6441C38.443 6.95722 38.011 6.36458 37.4245 5.87909C36.8354 5.39213 36.0511 5.06403 35.1946 5.00798L35.1946 5.00806Z" fill="#FFE7E0"/>
</g>
<defs>
<filter id="filter0_d_584_64" x="0.00854492" y="0" width="74.4521" height="73.8324" filterUnits="userSpaceOnUse" color-interpolation-filters="sRGB">
<feFlood flood-opacity="0" result="BackgroundImageFix"/>
<feColorMatrix in="SourceAlpha" type="matrix" values="0 0 0 0 0 0 0 0 0 0 0 0 0 0 0 0 0 0 127 0" result="hardAlpha"/>
<feOffset dy="10"/>
<feGaussianBlur stdDeviation="7.5"/>
<feComposite in2="hardAlpha" operator="out"/>
<feColorMatrix type="matrix" values="0 0 0 0 0 0 0 0 0 0 0 0 0 0 0 0 0 0 0.25 0"/>
<feBlend mode="normal" in2="BackgroundImageFix" result="effect1_dropShadow_584_64"/>
<feBlend mode="normal" in="SourceGraphic" in2="effect1_dropShadow_584_64" result="shape"/>
</filter>
</defs>
</svg>
