<svg width="101" height="101" viewBox="0 0 101 101" fill="none" xmlns="http://www.w3.org/2000/svg">
<circle cx="48" cy="48" r="41" fill="#C52800"/>
<g filter="url(#filter0_d_550_297)">
<path fill-rule="evenodd" clip-rule="evenodd" d="M31.093 66.5369H40.6101C40.6101 69.1663 38.4808 71.3001 35.8505 71.3001C33.2199 71.3001 31.093 69.1669 31.093 66.5369ZM76.209 61.7783C78.8384 61.7783 80.9721 63.9076 80.9721 66.5369C80.9721 69.1663 78.8378 71.3001 76.209 71.3001C73.5832 71.3001 71.4494 69.1657 71.4494 66.5369C71.4494 65.5715 71.7436 64.6261 72.2922 63.8312L74.7846 66.996C75.2476 67.6284 76.0425 67.9044 76.7239 67.5109C77.4054 67.1169 77.5331 66.3049 77.2434 65.5762L75.3434 61.8582C75.6308 61.8064 75.9193 61.7783 76.209 61.7783ZM27.1575 29.9493C27.3616 29.9681 27.6114 30.101 27.8959 30.3C30.4539 32.054 31.2495 37.0167 28.9976 39.2668C28.6714 39.5947 28.5289 39.7937 28.5289 40.356V45.663C28.5289 46.662 26.618 46.662 26.618 45.6584L26.6135 38.9515V31.0327C26.6123 30.1996 26.8205 29.9208 27.1575 29.9493ZM21.7414 29.9493C21.9775 29.9447 22.2181 30.1534 22.2381 30.5594L22.4086 34.5744C22.3897 35.1623 23.2685 35.1623 23.2496 34.5744V30.6878C23.2496 30.1854 23.5251 30.0445 23.9117 30.5173C24.5412 31.2791 24.8862 32.996 24.8862 34.2248C24.8862 35.8625 24.2287 37.3514 23.1739 38.0522C22.785 38.3077 22.7052 38.3926 22.7052 38.956V45.6584C22.7052 46.6615 20.7796 46.6615 20.7796 45.6584V38.956C20.7607 38.4211 20.7642 38.331 20.3063 38.0476C19.2337 37.381 18.5934 35.8625 18.5934 34.2248C18.5934 33.0005 18.944 31.2789 19.569 30.5172C19.9613 30.0439 20.2356 30.1859 20.2356 30.6877V34.5744C20.2111 35.1623 21.0955 35.1623 21.0778 34.5744L21.2483 30.5879C21.2672 30.1613 21.5048 29.9493 21.7414 29.9493ZM44.4731 19.6794C42.8599 19.7177 41.3083 20.5485 40.8927 22.0031L36.3377 37.7965C35.6341 40.2518 36.4324 43.5387 40.1554 43.5387H51.8L54.3552 57.0679C54.804 59.4503 59.3453 59.4897 59.1611 57.0622L58.011 41.7652C57.8268 39.311 56.8329 38.3928 55.0555 38.1562L46.1422 36.803L47.0449 29.2208L51.2275 32.3856C52.1022 33.0476 52.5082 33.152 53.5072 33.3265L58.6056 34.2303C59.1451 34.3272 59.3857 34.5519 59.7466 35.4346L67.3375 54.0205C69.0596 58.2362 67.7156 61.0971 62.2249 61.0971H52.4295C48.1916 61.0971 45.9311 57.5018 47.3112 54.3895L49.3259 49.8591C50.2388 47.8052 49.1514 45.6479 46.9571 45.6479L34.0774 45.6474V25.8732C34.0774 22.9964 32.5533 22.1502 30.0044 22.1502H24.541C19.2522 22.1502 15 26.4018 15 31.6911V47.3195C15 49.012 16.2636 50.3794 17.8283 50.3794H28.1158C23.452 53.3076 20.4908 59.0457 20.992 64.0876C21.2098 66.2773 22.4763 66.5384 23.4143 66.5384H26.4365C26.4365 71.7366 30.651 75.9546 35.8487 75.9546C41.0464 75.9546 45.2677 71.7355 45.2677 66.5384H66.7936C66.7936 71.7366 71.0069 75.9546 76.2062 75.9546C81.4101 75.9546 85.6224 71.7355 85.6224 66.5384C85.619 64.8871 85.1828 63.2647 84.3554 61.8363L84.9319 61.9253C85.9908 62.0878 86.2662 60.7905 85.741 59.6507C84.0042 55.8666 80.3159 53.3832 76.2228 53.1797C75.8248 53.1609 75.4616 52.93 75.4616 52.4413L75.4633 51.6897C75.4633 50.7705 75.469 50.0304 74.7448 49.041L64.5479 34.836C64.0319 33.947 64.1647 33.4509 65.0594 33.4509H66.7815C67.9397 33.4509 68.7807 33.2091 68.6165 31.8611L68.105 28.4785C67.9721 27.4241 67.5285 26.7034 66.0042 26.7034H63.3076C60.4371 26.7034 59.2737 28.6952 58.5074 29.7353C58.3602 29.9303 58.2468 30.0957 58.1441 30.2468L54.034 28.9416L47.843 21.1129C47.0174 20.1008 45.7276 19.6515 44.4731 19.6794Z" fill="#FFE7E0"/>
<path fill-rule="evenodd" clip-rule="evenodd" d="M47.2408 5.95721C44.5169 5.78273 41.9862 7.39533 40.9963 9.94023C40.0081 12.4909 40.7654 15.4081 42.9162 17.092C44.1268 18.0386 45.5769 18.7052 46.8462 18.7142C49.9306 18.7245 52.4379 16.2075 52.463 13.1282L50.8624 13.2229C50.7917 15.3994 49.0365 17.1261 46.8456 17.1261C46.5902 17.1261 46.345 17.1027 46.1044 17.0554C46.3598 16.7001 46.544 16.2371 46.6723 15.7022C47.4387 12.4862 49.7378 12.4389 51.8761 12.2825C52.4954 12.2352 53.3296 12.2352 54.0652 12.2352C55.3334 12.2352 55.3762 10.6357 54.2887 10.423L52.8318 10.1676C52.4292 9.07045 51.7392 8.12387 50.8024 7.34844C49.8615 6.57065 48.6088 6.0466 47.2408 5.95709L47.2408 5.95721Z" fill="#FFE7E0"/>
</g>
<defs>
<filter id="filter0_d_550_297" x="0" y="0.944336" width="101" height="100.01" filterUnits="userSpaceOnUse" color-interpolation-filters="sRGB">
<feFlood flood-opacity="0" result="BackgroundImageFix"/>
<feColorMatrix in="SourceAlpha" type="matrix" values="0 0 0 0 0 0 0 0 0 0 0 0 0 0 0 0 0 0 127 0" result="hardAlpha"/>
<feOffset dy="10"/>
<feGaussianBlur stdDeviation="7.5"/>
<feComposite in2="hardAlpha" operator="out"/>
<feColorMatrix type="matrix" values="0 0 0 0 0 0 0 0 0 0 0 0 0 0 0 0 0 0 0.25 0"/>
<feBlend mode="normal" in2="BackgroundImageFix" result="effect1_dropShadow_550_297"/>
<feBlend mode="normal" in="SourceGraphic" in2="effect1_dropShadow_550_297" result="shape"/>
</filter>
</defs>
</svg>
